HIERARCHY
ROOT Hips
{
    OFFSET 0.0 0.0 0.0
    CHANNELS 6 Xposition Yposition Zposition Zrotation Xrotation Yrotation
    JOINT LeftHipJoint
    {
        OFFSET 0.1 0.0 0.0
        CHANNELS 3 Zrotation Xrotation Yrotation
        JOINT LeftUpLeg
        {
            OFFSET 118.58764237957877 0.0 0.0
            CHANNELS 3 Zrotation Xrotation Yrotation
            JOINT LeftLeg
            {
                OFFSET 0.0 0.0 -401.047656361042
                CHANNELS 3 Zrotation Xrotation Yrotation
                JOINT LeftFoot
                {
                    OFFSET 0.0 0.0 -394.0136678336803
                    CHANNELS 3 Zrotation Xrotation Yrotation
                    End Site
                    {
                        OFFSET 0.0 -0.1 0.0
                    }
                }
            }
        }
    }
    JOINT LowerBack
    {
        OFFSET 0.0 0.0 0.1
        CHANNELS 3 Zrotation Xrotation Yrotation
        JOINT Spine
        {
            OFFSET 0.0 0.0 217.74140104282395
            CHANNELS 3 Zrotation Xrotation Yrotation
            JOINT Spine1
            {
                OFFSET 0.0 0.0 253.01475556165042
                CHANNELS 3 Zrotation Xrotation Yrotation
                JOINT LeftShoulder
                {
                    OFFSET 0.1 0.0 0.0
                    CHANNELS 3 Zrotation Xrotation Yrotation
                    JOINT LeftArm
                    {
                        OFFSET 143.67228480179085 0.0 0.0
                        CHANNELS 3 Zrotation Xrotation Yrotation
                        JOINT LeftForeArm
                        {
                            OFFSET 255.79497822337407 0.0 0.0
                            CHANNELS 3 Zrotation Xrotation Yrotation
                            JOINT LeftHand
                            {
                                OFFSET 243.1667118749965 0.0 0.0
                                CHANNELS 3 Zrotation Xrotation Yrotation
                                End Site
                                {
                                    OFFSET 0.1 0.0 0.0
                                }
                            }
                        }
                    }
                }
                JOINT Neck
                {
                    OFFSET 0.0 0.0 0.1
                    CHANNELS 3 Zrotation Xrotation Yrotation
                    JOINT Neck1
                    {
                        OFFSET 0.0 0.0 108.77746885362666
                        CHANNELS 3 Zrotation Xrotation Yrotation
                        End Site
                        {
                            OFFSET 0.0 0.0 117.72879456648256
                        }
                    }
                }
                JOINT RightShoulder
                {
                    OFFSET -0.1 0.0 0.0
                    CHANNELS 3 Zrotation Xrotation Yrotation
                    JOINT RightArm
                    {
                        OFFSET -143.67228480179085 0.0 0.0
                        CHANNELS 3 Zrotation Xrotation Yrotation
                        JOINT RightForeArm
                        {
                            OFFSET -255.79497822337407 0.0 0.0
                            CHANNELS 3 Zrotation Xrotation Yrotation
                            JOINT RightHand
                            {
                                OFFSET -243.1667118749965 0.0 0.0
                                CHANNELS 3 Zrotation Xrotation Yrotation
                                End Site
                                {
                                    OFFSET -0.1 0.0 0.0
                                }
                            }
                        }
                    }
                }
            }
        }
    }
    JOINT RightHipJoint
    {
        OFFSET -0.1 0.0 0.0
        CHANNELS 3 Zrotation Xrotation Yrotation
        JOINT RightUpLeg
        {
            OFFSET -118.58764237957877 0.0 0.0
            CHANNELS 3 Zrotation Xrotation Yrotation
            JOINT RightLeg
            {
                OFFSET 0.0 0.0 -401.047656361042
                CHANNELS 3 Zrotation Xrotation Yrotation
                JOINT RightFoot
                {
                    OFFSET 0.0 0.0 -394.0136678336803
                    CHANNELS 3 Zrotation Xrotation Yrotation
                    End Site
                    {
                        OFFSET 0.0 -0.1 0.0
                    }
                }
            }
        }
    }
}
MOTION
Frames: 4
Frame Time: 0.03333333333333333
0.0 0.0 798.9299691375959 24.6392120287446 1.2381740013488076 3.1639543049164613 0.0 0.0 1.2424041724466862e-16 -0.2561507295923698 -16.269041352279185 -1.5844454081048103 -0.3236834404391478 25.86596938023931 -0.03164026165777138 0.0 0.0 0.0 0.0 0.0 1.2424041724466862e-16 -0.004671717168691955 -0.3036475630171929 -1.7864645963036911 0.03536324282780932 -4.981885542454031e-17 -3.975539798899441e-16 -3.1805546814635168e-15 2.758691436281349e-33 -9.93923337957349e-17 -37.69162322973334 6.0051835870544785 74.13046117278769 -22.93882002520372 1.581091327498736e-16 -7.792605515822684e-16 0.0 0.0 1.9381505090168305e-15 -3.1805546814635168e-15 2.758691436281349e-33 -9.93923337957349e-17 0.8469568139753672 -4.691933996602585 2.225030172840696 -3.1805546814635168e-15 2.758691436281349e-33 -9.93923337957349e-17 28.321747300269006 6.417427329412144 -73.61732724314732 31.008548909896525 0.0 0.0 0.0 0.0 -1.5902773407317584e-15 0.0 0.0 1.2424041724466862e-16 -0.18403506695518784 -11.730416412917416 -2.074575015926418 -0.4459756096972184 20.813593293755318 -0.8973181003283544 0.0 0.0 3.975693351829396e-16
0.0 0.0 798.9299691375959 24.640317384709363 1.1141896929883646 3.2924154980135696 0.0 0.0 6.212020862233431e-17 -0.2650318762455776 -16.46844012422214 -1.9100913649969495 -0.48787540352565395 26.644310373438017 0.12978368658889863 0.0 0.0 3.975693351829396e-16 0.0 0.0 6.212020862233431e-17 -0.005989410359311252 -0.38098392577625223 -1.865283138236879 0.07832005987546405 -1.6133806766466564e-19 -2.3605673762988613e-16 0.0 0.0 6.212020862233431e-17 -38.22907218459698 5.721722214342395 74.07655385561688 -23.161472925092554 -6.391237928314351e-15 -4.980317017070866e-16 0.0 0.0 -4.07508568562513e-15 0.0 0.0 6.212020862233431e-17 0.7953161651093313 -4.81996702243574 2.1747563576861824 0.0 0.0 6.212020862233431e-17 27.784463547744174 5.623719004002676 -73.16357524617142 30.977694731170175 -1.0561439603438333e-14 9.527568164989121e-15 0.0 0.0 -1.5902773407317584e-15 0.0 0.0 6.212020862233431e-17 -0.18503542297209807 -11.540507364012841 -2.370419557531145 -0.5512043575221776 20.81166587605328 -0.7980051738301756 0.0 0.0 -3.975693351829396e-16
0.0 0.0 798.9299691375959 24.57145674699265 0.8623477022059713 3.4862826150102184 0.0 0.0 -3.416611474228387e-17 -0.28098846596867905 -16.544118133826526 -2.3064562396130888 -0.6891740264879983 27.630919617150752 0.2942777955040157 0.0 0.0 0.0 0.0 0.0 -3.416611474228387e-17 -0.008036994101202323 -0.4843866136997152 -2.0419468797813325 -0.10747813032404838 -9.613560437831616e-20 1.0249829914292108e-16 0.0 0.0 -4.659015646675073e-17 -39.23725664739263 5.580275464297445 74.11923724294927 -23.20919409505821 -1.2795785932852568e-15 6.231082646757632e-15 0.0 0.0 4.472655020808071e-16 0.0 0.0 -4.659015646675073e-17 1.0132977033105002 -4.785184966268597 2.11033379215801 0.0 0.0 -4.659015646675073e-17 27.796466039588104 5.565092037916867 -73.06451756690304 31.1740249595123 -1.0400268912228211e-14 -1.3608685495849512e-14 0.0 0.0 0.0 0.0 0.0 -3.416611474228387e-17 -0.18876060737412845 -11.157393327323424 -2.6344117538876195 -0.6281273434609032 20.672996158028592 -0.9165826562168652 -3.1805546814635168e-15 -4.969616689786745e-17 -1.3793457181406746e-33
0.0 0.0 798.9299691375959 24.530676310156107 0.6488198498378341 3.6304539858387694 0.0 0.0 -1.3666445896913547e-16 -0.27809510581646707 -16.64663234826444 -2.606333255637713 -0.8943197363763692 28.7277524684515 0.5246348058654864 0.0 0.0 -3.975693351829396e-16 0.0 0.0 -1.3666445896913547e-16 -0.00965543998797718 -0.5911224522280111 -2.1954199946355217 -0.3005499447056334 2.4782826677582026e-16 2.4913169289339257e-16 0.0 0.0 -7.454425034680117e-17 -40.34342329250847 5.441427956689232 74.24516161446535 -23.3155936952853 1.6067045923065524e-16 -7.787364821567234e-16 0.0 0.0 1.7890620083232284e-15 0.0 0.0 -7.454425034680117e-17 1.230478506435751 -4.841958413937291 2.010209926845915 0.0 0.0 -7.454425034680117e-17 27.89906612762803 5.6069305681424595 -72.98636507230901 31.38966000578103 -6.9843260039164715e-15 -1.341204935837041e-15 0.0 0.0 0.0 0.0 0.0 -1.3666445896913547e-16 -0.18328500503489104 -10.988392862939321 -2.797649274867666 -0.7080195758350822 21.00839950361535 -1.0434787022216743 -3.1805546814635168e-15 1.1034765745125397e-32 -3.975693351829396e-16
